<svg id="bold" enable-background="new 0 0 32 32" viewBox="0 0 32 32" xmlns="http://www.w3.org/2000/svg"><path d="m26 32h-20c-3.314 0-6-2.686-6-6v-20c0-3.314 2.686-6 6-6h20c3.314 0 6 2.686 6 6v20c0 3.314-2.686 6-6 6z" fill="#f5e6fe"/><g fill="#be63f9"><path d="m12.157 24c-.024 0-.048-.001-.071-.002-2.538-.132-3.951-1.546-4.085-4.087-.025-.46.208-.905.61-1.16 1.667-1.062 3.23-2.255 4.644-3.544.271-.248.694-.229.941.043.249.272.229.693-.043.942-1.47 1.341-3.094 2.581-4.828 3.685.105 1.82.977 2.692 2.833 2.789 1.01-1.645 2.193-3.208 3.48-4.639.246-.273.668-.296.941-.049.273.246.296.668.049.941-1.237 1.375-2.375 2.879-3.382 4.469-.24.382-.653.612-1.089.612z"/><path d="m18.474 16.8c-.182 0-.364-.075-.495-.221-.246-.273-.224-.695.049-.941 1.428-1.286 2.992-2.469 4.648-3.517-.106-1.819-.978-2.691-2.834-2.788-1.068 1.726-2.307 3.351-3.648 4.821-.248.272-.671.291-.942.043-.272-.248-.292-.67-.044-.942 1.29-1.414 2.483-2.977 3.546-4.647.254-.401.709-.636 1.161-.607 2.538.133 3.951 1.546 4.085 4.087.025.46-.208.905-.61 1.16-1.592 1.007-3.096 2.145-4.469 3.381-.129.115-.288.171-.447.171z"/><path d="m9.153 19.597c-.21 0-.404-.132-.475-.342l-.438-1.316c-.097-.292-.074-.605.066-.88.143-.281.389-.488.691-.585 3.82-1.213 6.217-3.653 7.327-7.46.089-.306.292-.557.569-.706.27-.146.581-.178.878-.086l1.475.454c.264.081.412.361.331.625s-10.004 10.183-10.266 10.271c-.053.017-.106.025-.158.025z"/></g><path d="m17.284 20.488-4.333-5.167c-.167-.199-.154-.492.029-.675l1.667-1.667c.184-.183.476-.195.675-.03l5.167 4.333c.33.277.177.812-.245.877l-1.805.278-.277 1.804c-.067.429-.604.574-.878.247z" fill="#d9a4fc"/></svg>