<?xml version="1.0" encoding="utf-8"?>
<!-- Generator: Adobe Illustrator 27.0.0, SVG Export Plug-In . SVG Version: 6.00 Build 0)  -->
<svg version="1.1" id="Layer_1" xmlns="http://www.w3.org/2000/svg" xmlns:xlink="http://www.w3.org/1999/xlink" x="0px" y="0px"
	 viewBox="0 0 134 32" style="enable-background:new 0 0 134 32;" xml:space="preserve">
<style type="text/css">
	.st0{fill:#D6D6D3;}
	.st1{fill:#3C8DCB;}
	.st2{fill:#707171;}
	.st3{fill:#FBB230;}
</style>
<g>
	<path class="st0" d="M25.5,1.3l2.4,0.9L20,23.9l-2.4-0.9c-0.3-0.1-0.5-0.5-0.4-0.8l7.5-20.6C24.9,1.3,25.2,1.2,25.5,1.3z"/>
	<path class="st1" d="M27.9,2.2l13.6,5c1,0.4,1.5,1.5,1.2,2.5l-6.6,18.1c-0.4,1-1.5,1.5-2.5,1.2l-13.6-5L27.9,2.2z"/>
	<path class="st0" d="M29.9,7.5l8.4,3.1c0.5,0.2,0.8,0.8,0.6,1.3l-1.8,4.9c-0.2,0.5-0.8,0.8-1.3,0.6l-8.4-3.1
		c-0.5-0.2-0.8-0.8-0.6-1.3l1.8-4.9C28.8,7.6,29.4,7.3,29.9,7.5L29.9,7.5z"/>
	<path class="st2" d="M34.6,12.4c-0.1,0-0.1,0-0.2,0l-2.7-1c-0.3-0.1-0.4-0.4-0.3-0.6c0.1-0.3,0.4-0.4,0.6-0.3l2.7,1
		c0.3,0.1,0.4,0.4,0.3,0.6C35,12.3,34.8,12.4,34.6,12.4L34.6,12.4z"/>
	<path class="st2" d="M34.6,14.8c-0.1,0-0.1,0-0.2,0l-4.1-1.5c-0.3-0.1-0.4-0.4-0.3-0.6c0.1-0.3,0.4-0.4,0.6-0.3l4.1,1.5
		c0.3,0.1,0.4,0.4,0.3,0.6C35,14.6,34.8,14.8,34.6,14.8z"/>
	<path class="st0" d="M11,7.6h2.5v23.2H11c-0.3,0-0.6-0.3-0.6-0.6v-22C10.4,7.8,10.7,7.6,11,7.6L11,7.6z"/>
	<path class="st3" d="M13.6,7.6h14.5c1.1,0,1.9,0.9,1.9,1.9v19.3c0,1.1-0.9,1.9-1.9,1.9H13.6V7.6z"/>
	<path class="st0" d="M17.3,11.9h8.9c0.6,0,1,0.5,1,1v5.2c0,0.6-0.5,1-1,1h-8.9c-0.6,0-1-0.5-1-1v-5.2
		C16.3,12.4,16.8,11.9,17.3,11.9z"/>
	<g>
		<path class="st2" d="M23.2,14.9h-2.8c-0.3,0-0.5-0.2-0.5-0.5s0.2-0.5,0.5-0.5h2.8c0.3,0,0.5,0.2,0.5,0.5
			C23.7,14.7,23.5,14.9,23.2,14.9z"/>
		<path class="st2" d="M24,17.2h-4.4c-0.3,0-0.5-0.2-0.5-0.5s0.2-0.5,0.5-0.5H24c0.3,0,0.5,0.2,0.5,0.5S24.3,17.2,24,17.2L24,17.2z"
			/>
	</g>
</g>
<g>
	<path class="st3" d="M52.2,16.1c0.5,0,0.8,0,1.1-0.1c0.3-0.1,0.5-0.2,0.7-0.3c0.2-0.1,0.3-0.3,0.4-0.5c0.1-0.2,0.1-0.4,0.1-0.6
		c0-0.5-0.2-0.9-0.7-1.2c-0.4-0.3-1.2-0.6-2.3-1c-0.5-0.2-0.9-0.4-1.4-0.6c-0.5-0.2-0.9-0.5-1.3-0.8c-0.4-0.3-0.7-0.7-0.9-1.2
		c-0.2-0.5-0.4-1-0.4-1.7s0.1-1.3,0.4-1.8c0.2-0.5,0.6-1,1.1-1.4c0.5-0.4,1-0.7,1.7-0.9c0.6-0.2,1.4-0.3,2.2-0.3
		c1,0,1.8,0.1,2.5,0.3c0.7,0.2,1.3,0.4,1.7,0.7l-0.9,2.5c-0.4-0.2-0.8-0.4-1.3-0.5c-0.5-0.2-1.1-0.2-1.8-0.2c-0.8,0-1.3,0.1-1.7,0.3
		c-0.3,0.2-0.5,0.5-0.5,1c0,0.3,0.1,0.5,0.2,0.7c0.1,0.2,0.3,0.3,0.5,0.5c0.2,0.1,0.5,0.3,0.8,0.4c0.3,0.1,0.6,0.2,1,0.4
		c0.7,0.3,1.4,0.5,1.9,0.8c0.6,0.3,1,0.6,1.4,0.9c0.4,0.4,0.6,0.8,0.8,1.3c0.2,0.5,0.3,1.1,0.3,1.8c0,1.3-0.5,2.4-1.4,3.1
		c-0.9,0.7-2.4,1.1-4.2,1.1c-0.6,0-1.2,0-1.7-0.1c-0.5-0.1-1-0.2-1.4-0.3c-0.4-0.1-0.7-0.2-1-0.4c-0.3-0.1-0.5-0.2-0.7-0.4l0.9-2.6
		c0.4,0.2,1,0.4,1.6,0.6C50.5,16,51.3,16.1,52.2,16.1z"/>
	<path class="st3" d="M66.9,18.8c-2.3,0-4.1-0.6-5.3-1.9c-1.2-1.3-1.8-3.1-1.8-5.5c0-1.2,0.2-2.2,0.6-3.2c0.4-0.9,0.9-1.7,1.5-2.4
		c0.6-0.6,1.4-1.1,2.3-1.5C65,4,66,3.9,67,3.9c0.6,0,1.2,0,1.7,0.1c0.5,0.1,0.9,0.2,1.3,0.3c0.4,0.1,0.7,0.2,0.9,0.4
		c0.2,0.1,0.4,0.2,0.5,0.3l-0.9,2.6c-0.4-0.2-1-0.4-1.5-0.6c-0.6-0.2-1.3-0.2-2-0.2c-0.5,0-1,0.1-1.5,0.2c-0.5,0.2-0.9,0.4-1.3,0.8
		c-0.4,0.4-0.7,0.8-0.9,1.4c-0.2,0.6-0.3,1.3-0.3,2.1c0,0.7,0.1,1.3,0.2,1.9c0.1,0.6,0.4,1.1,0.7,1.5c0.3,0.4,0.7,0.7,1.3,1
		c0.5,0.2,1.2,0.4,1.9,0.4c0.5,0,0.9,0,1.3-0.1c0.4-0.1,0.7-0.1,1-0.2c0.3-0.1,0.5-0.2,0.8-0.3c0.2-0.1,0.4-0.2,0.6-0.3l0.9,2.6
		c-0.5,0.3-1.1,0.5-1.9,0.7S68,18.8,66.9,18.8z"/>
	<path class="st3" d="M82.4,4.2h3.2v14.4h-3.2v-6.1H77v6.1h-3.2V4.2H77v5.5h5.4V4.2z"/>
	<path class="st3" d="M102.6,11.4c0,1.2-0.2,2.3-0.5,3.2c-0.4,0.9-0.9,1.7-1.5,2.3c-0.6,0.6-1.4,1.1-2.3,1.4
		c-0.9,0.3-1.8,0.5-2.8,0.5c-1,0-1.9-0.2-2.8-0.5c-0.9-0.3-1.6-0.8-2.3-1.4c-0.6-0.6-1.2-1.4-1.5-2.3c-0.4-0.9-0.6-2-0.6-3.2
		c0-1.2,0.2-2.3,0.6-3.2c0.4-0.9,0.9-1.7,1.6-2.4c0.7-0.6,1.4-1.1,2.3-1.4c0.9-0.3,1.8-0.5,2.7-0.5c1,0,1.9,0.2,2.8,0.5
		c0.9,0.3,1.6,0.8,2.3,1.4c0.6,0.6,1.2,1.4,1.5,2.4C102.4,9,102.6,10.1,102.6,11.4z M91.7,11.4c0,0.7,0.1,1.3,0.3,1.9
		c0.2,0.6,0.4,1.1,0.7,1.5c0.3,0.4,0.7,0.7,1.2,0.9c0.5,0.2,1,0.3,1.6,0.3c0.6,0,1.1-0.1,1.6-0.3c0.5-0.2,0.9-0.5,1.2-0.9
		c0.3-0.4,0.6-0.9,0.7-1.5c0.2-0.6,0.3-1.2,0.3-1.9c0-0.7-0.1-1.3-0.3-1.9c-0.2-0.6-0.4-1.1-0.7-1.5C98,7.6,97.6,7.3,97.1,7
		c-0.5-0.2-1-0.3-1.6-0.3c-0.6,0-1.1,0.1-1.6,0.3c-0.5,0.2-0.9,0.5-1.2,1c-0.3,0.4-0.6,0.9-0.7,1.5C91.8,10,91.7,10.7,91.7,11.4z"/>
	<path class="st3" d="M119,11.4c0,1.2-0.2,2.3-0.5,3.2c-0.4,0.9-0.9,1.7-1.5,2.3c-0.6,0.6-1.4,1.1-2.3,1.4c-0.9,0.3-1.8,0.5-2.8,0.5
		c-1,0-1.9-0.2-2.8-0.5c-0.9-0.3-1.6-0.8-2.3-1.4c-0.6-0.6-1.2-1.4-1.5-2.3c-0.4-0.9-0.6-2-0.6-3.2c0-1.2,0.2-2.3,0.6-3.2
		c0.4-0.9,0.9-1.7,1.6-2.4c0.7-0.6,1.4-1.1,2.3-1.4c0.9-0.3,1.8-0.5,2.7-0.5c1,0,1.9,0.2,2.8,0.5c0.9,0.3,1.6,0.8,2.3,1.4
		c0.6,0.6,1.2,1.4,1.5,2.4C118.8,9,119,10.1,119,11.4z M108,11.4c0,0.7,0.1,1.3,0.3,1.9c0.2,0.6,0.4,1.1,0.7,1.5
		c0.3,0.4,0.7,0.7,1.2,0.9c0.5,0.2,1,0.3,1.6,0.3c0.6,0,1.1-0.1,1.6-0.3c0.5-0.2,0.9-0.5,1.2-0.9c0.3-0.4,0.6-0.9,0.7-1.5
		c0.2-0.6,0.3-1.2,0.3-1.9c0-0.7-0.1-1.3-0.3-1.9c-0.2-0.6-0.4-1.1-0.7-1.5c-0.3-0.4-0.7-0.7-1.2-0.9c-0.5-0.2-1-0.3-1.6-0.3
		c-0.6,0-1.1,0.1-1.6,0.3c-0.5,0.2-0.9,0.5-1.2,1c-0.3,0.4-0.6,0.9-0.7,1.5C108.1,10,108,10.7,108,11.4z"/>
	<path class="st3" d="M131.3,15.8v2.8h-9.6V4.2h3.2v11.6H131.3z"/>
</g>
<g>
	<path class="st1" d="M47.6,22.3c0.3-0.1,0.7-0.2,1.2-0.2c0.5-0.1,1.1-0.1,1.7-0.1c0.5,0,0.9,0.1,1.2,0.2c0.3,0.1,0.6,0.3,0.8,0.5
		c0.1,0,0.2-0.1,0.3-0.2c0.1-0.1,0.3-0.2,0.5-0.2c0.2-0.1,0.4-0.1,0.7-0.2c0.3-0.1,0.5-0.1,0.8-0.1c0.6,0,1,0.1,1.4,0.2
		c0.4,0.2,0.6,0.4,0.8,0.7c0.2,0.3,0.3,0.6,0.4,1.1c0.1,0.4,0.1,0.9,0.1,1.3v4.1h-1.3v-3.8c0-0.4,0-0.8-0.1-1.1
		c0-0.3-0.1-0.6-0.2-0.8c-0.1-0.2-0.3-0.4-0.5-0.5c-0.2-0.1-0.5-0.1-0.8-0.1c-0.4,0-0.8,0.1-1.1,0.2c-0.3,0.1-0.5,0.2-0.6,0.3
		c0.1,0.2,0.1,0.5,0.2,0.8c0,0.3,0.1,0.6,0.1,0.9v4.1h-1.3v-3.8c0-0.4,0-0.8-0.1-1.1c0-0.3-0.1-0.6-0.2-0.8
		c-0.1-0.2-0.3-0.4-0.5-0.5c-0.2-0.1-0.5-0.1-0.8-0.1c-0.1,0-0.3,0-0.4,0c-0.1,0-0.3,0-0.4,0c-0.1,0-0.3,0-0.4,0c-0.1,0-0.2,0-0.2,0
		v6.1h-1.3V22.3z"/>
	<path class="st1" d="M61.9,21.9c0.5,0,1,0.1,1.3,0.2c0.4,0.1,0.6,0.3,0.9,0.6c0.2,0.2,0.4,0.5,0.5,0.9c0.1,0.3,0.1,0.7,0.1,1.1v4.5
		c-0.1,0-0.3,0-0.5,0.1c-0.2,0-0.4,0.1-0.7,0.1c-0.3,0-0.5,0.1-0.8,0.1c-0.3,0-0.6,0-0.9,0c-0.4,0-0.8,0-1.1-0.1
		c-0.3-0.1-0.6-0.2-0.9-0.4c-0.3-0.2-0.4-0.4-0.6-0.7c-0.1-0.3-0.2-0.7-0.2-1.1c0-0.4,0.1-0.7,0.2-1c0.2-0.3,0.4-0.5,0.7-0.7
		c0.3-0.2,0.6-0.3,1-0.4c0.4-0.1,0.8-0.1,1.2-0.1c0.1,0,0.3,0,0.4,0c0.1,0,0.3,0,0.4,0.1c0.1,0,0.2,0,0.3,0.1c0.1,0,0.2,0,0.2,0
		v-0.4c0-0.2,0-0.4-0.1-0.6c0-0.2-0.1-0.4-0.3-0.6c-0.1-0.2-0.3-0.3-0.5-0.4c-0.2-0.1-0.5-0.1-0.8-0.1c-0.4,0-0.8,0-1.1,0.1
		c-0.3,0.1-0.6,0.1-0.7,0.2l-0.2-1.1c0.2-0.1,0.4-0.1,0.8-0.2C61,21.9,61.5,21.9,61.9,21.9z M62,28.4c0.3,0,0.6,0,0.8,0
		c0.2,0,0.4,0,0.6-0.1v-2.2c-0.1,0-0.2-0.1-0.5-0.1c-0.2,0-0.5,0-0.8,0c-0.2,0-0.4,0-0.6,0c-0.2,0-0.4,0.1-0.6,0.2
		c-0.2,0.1-0.3,0.2-0.5,0.4c-0.1,0.2-0.2,0.4-0.2,0.6c0,0.5,0.1,0.8,0.4,1C61.1,28.3,61.5,28.4,62,28.4z"/>
	<path class="st1" d="M66.8,22.3c0.3-0.1,0.7-0.2,1.2-0.2c0.5-0.1,1.1-0.1,1.7-0.1c0.6,0,1.1,0.1,1.4,0.2c0.4,0.2,0.7,0.4,0.9,0.7
		c0.2,0.3,0.4,0.6,0.5,1.1c0.1,0.4,0.1,0.9,0.1,1.3v4.1h-1.3v-3.8c0-0.4,0-0.8-0.1-1.1c-0.1-0.3-0.2-0.6-0.3-0.8s-0.3-0.3-0.6-0.4
		c-0.2-0.1-0.5-0.1-0.9-0.1c-0.1,0-0.3,0-0.4,0c-0.1,0-0.3,0-0.4,0c-0.1,0-0.3,0-0.4,0c-0.1,0-0.2,0-0.2,0v6.1h-1.3V22.3z"/>
	<path class="st1" d="M77.2,21.9c0.5,0,1,0.1,1.3,0.2c0.4,0.1,0.6,0.3,0.9,0.6c0.2,0.2,0.4,0.5,0.5,0.9c0.1,0.3,0.1,0.7,0.1,1.1v4.5
		c-0.1,0-0.3,0-0.5,0.1c-0.2,0-0.4,0.1-0.7,0.1c-0.3,0-0.5,0.1-0.8,0.1c-0.3,0-0.6,0-0.9,0c-0.4,0-0.8,0-1.1-0.1
		c-0.3-0.1-0.6-0.2-0.9-0.4c-0.3-0.2-0.4-0.4-0.6-0.7c-0.1-0.3-0.2-0.7-0.2-1.1c0-0.4,0.1-0.7,0.2-1c0.2-0.3,0.4-0.5,0.7-0.7
		c0.3-0.2,0.6-0.3,1-0.4c0.4-0.1,0.8-0.1,1.2-0.1c0.1,0,0.3,0,0.4,0c0.1,0,0.3,0,0.4,0.1c0.1,0,0.2,0,0.3,0.1c0.1,0,0.2,0,0.2,0
		v-0.4c0-0.2,0-0.4-0.1-0.6c0-0.2-0.1-0.4-0.3-0.6c-0.1-0.2-0.3-0.3-0.5-0.4c-0.2-0.1-0.5-0.1-0.8-0.1c-0.4,0-0.8,0-1.1,0.1
		c-0.3,0.1-0.6,0.1-0.7,0.2l-0.2-1.1c0.2-0.1,0.4-0.1,0.8-0.2C76.3,21.9,76.7,21.9,77.2,21.9z M77.3,28.4c0.3,0,0.6,0,0.8,0
		c0.2,0,0.4,0,0.6-0.1v-2.2c-0.1,0-0.2-0.1-0.5-0.1c-0.2,0-0.5,0-0.8,0c-0.2,0-0.4,0-0.6,0c-0.2,0-0.4,0.1-0.6,0.2
		c-0.2,0.1-0.3,0.2-0.5,0.4c-0.1,0.2-0.2,0.4-0.2,0.6c0,0.5,0.1,0.8,0.4,1C76.4,28.3,76.8,28.4,77.3,28.4z"/>
	<path class="st1" d="M86.6,28.6c-0.1,0.1-0.3,0.2-0.6,0.3C85.7,29,85.3,29,84.9,29c-0.4,0-0.8-0.1-1.2-0.2c-0.4-0.1-0.7-0.4-1-0.6
		c-0.3-0.3-0.5-0.7-0.7-1.1c-0.2-0.4-0.3-1-0.3-1.6c0-0.5,0.1-1,0.2-1.5c0.2-0.4,0.4-0.8,0.7-1.1c0.3-0.3,0.7-0.6,1.1-0.8
		c0.4-0.2,0.9-0.3,1.5-0.3c0.6,0,1.1,0,1.6,0.1c0.4,0.1,0.8,0.2,1.1,0.2v6.5c0,1.1-0.3,1.9-0.9,2.4c-0.6,0.5-1.4,0.8-2.6,0.8
		c-0.5,0-0.9,0-1.3-0.1c-0.4-0.1-0.8-0.2-1.1-0.3l0.2-1.1c0.3,0.1,0.6,0.2,1,0.3c0.4,0.1,0.8,0.1,1.2,0.1c0.8,0,1.3-0.2,1.7-0.5
		c0.3-0.3,0.5-0.8,0.5-1.5V28.6z M86.6,23.2c-0.1,0-0.3-0.1-0.5-0.1c-0.2,0-0.5,0-0.9,0c-0.7,0-1.2,0.2-1.6,0.7
		c-0.4,0.5-0.6,1.1-0.6,1.8c0,0.4,0.1,0.8,0.2,1.1c0.1,0.3,0.3,0.5,0.4,0.7s0.4,0.3,0.6,0.4c0.2,0.1,0.5,0.1,0.7,0.1
		c0.3,0,0.7,0,0.9-0.1c0.3-0.1,0.5-0.2,0.7-0.3V23.2z"/>
	<path class="st1" d="M89.7,25.7c0-0.6,0.1-1.2,0.3-1.7c0.2-0.5,0.4-0.9,0.7-1.2c0.3-0.3,0.7-0.6,1.1-0.7c0.4-0.2,0.8-0.2,1.2-0.2
		c1,0,1.7,0.3,2.2,0.9c0.5,0.6,0.8,1.5,0.8,2.8c0,0.1,0,0.1,0,0.2c0,0.1,0,0.2,0,0.2h-5c0.1,0.8,0.3,1.3,0.7,1.7
		c0.4,0.4,1,0.6,1.8,0.6c0.5,0,0.8,0,1.1-0.1c0.3-0.1,0.5-0.2,0.7-0.2l0.2,1.1c-0.2,0.1-0.4,0.2-0.8,0.3c-0.4,0.1-0.8,0.1-1.3,0.1
		c-0.6,0-1.2-0.1-1.6-0.3c-0.5-0.2-0.8-0.5-1.1-0.8c-0.3-0.3-0.5-0.7-0.7-1.2C89.8,26.8,89.7,26.3,89.7,25.7z M94.7,25
		c0-0.6-0.1-1.1-0.4-1.4C94,23.2,93.5,23,93,23c-0.3,0-0.6,0.1-0.8,0.2c-0.2,0.1-0.4,0.3-0.6,0.5c-0.2,0.2-0.3,0.4-0.4,0.6
		c-0.1,0.2-0.1,0.5-0.2,0.7H94.7z"/>
	<path class="st1" d="M97.9,22.3c0.3-0.1,0.7-0.2,1.2-0.2c0.5-0.1,1.1-0.1,1.7-0.1c0.5,0,0.9,0.1,1.2,0.2c0.3,0.1,0.6,0.3,0.8,0.5
		c0.1,0,0.2-0.1,0.3-0.2c0.1-0.1,0.3-0.2,0.5-0.2c0.2-0.1,0.4-0.1,0.7-0.2c0.3-0.1,0.5-0.1,0.8-0.1c0.6,0,1,0.1,1.4,0.2
		c0.4,0.2,0.6,0.4,0.8,0.7c0.2,0.3,0.3,0.6,0.4,1.1c0.1,0.4,0.1,0.9,0.1,1.3v4.1h-1.3v-3.8c0-0.4,0-0.8-0.1-1.1
		c0-0.3-0.1-0.6-0.2-0.8c-0.1-0.2-0.3-0.4-0.5-0.5c-0.2-0.1-0.5-0.1-0.8-0.1c-0.4,0-0.8,0.1-1.1,0.2c-0.3,0.1-0.5,0.2-0.6,0.3
		c0.1,0.2,0.1,0.5,0.2,0.8c0,0.3,0.1,0.6,0.1,0.9v4.1h-1.3v-3.8c0-0.4,0-0.8-0.1-1.1c0-0.3-0.1-0.6-0.2-0.8
		c-0.1-0.2-0.3-0.4-0.5-0.5c-0.2-0.1-0.5-0.1-0.8-0.1c-0.1,0-0.3,0-0.4,0c-0.1,0-0.3,0-0.4,0c-0.1,0-0.3,0-0.4,0c-0.1,0-0.2,0-0.2,0
		v6.1h-1.3V22.3z"/>
	<path class="st1" d="M109.5,25.7c0-0.6,0.1-1.2,0.3-1.7c0.2-0.5,0.4-0.9,0.7-1.2c0.3-0.3,0.7-0.6,1.1-0.7c0.4-0.2,0.8-0.2,1.2-0.2
		c1,0,1.7,0.3,2.2,0.9c0.5,0.6,0.8,1.5,0.8,2.8c0,0.1,0,0.1,0,0.2c0,0.1,0,0.2,0,0.2h-5c0.1,0.8,0.3,1.3,0.7,1.7
		c0.4,0.4,1,0.6,1.8,0.6c0.5,0,0.8,0,1.1-0.1c0.3-0.1,0.5-0.2,0.7-0.2l0.2,1.1c-0.2,0.1-0.4,0.2-0.8,0.3c-0.4,0.1-0.8,0.1-1.3,0.1
		c-0.6,0-1.2-0.1-1.6-0.3c-0.5-0.2-0.8-0.5-1.1-0.8c-0.3-0.3-0.5-0.7-0.7-1.2C109.5,26.8,109.5,26.3,109.5,25.7z M114.4,25
		c0-0.6-0.1-1.1-0.4-1.4c-0.3-0.4-0.7-0.6-1.2-0.6c-0.3,0-0.6,0.1-0.8,0.2c-0.2,0.1-0.4,0.3-0.6,0.5c-0.2,0.2-0.3,0.4-0.4,0.6
		c-0.1,0.2-0.1,0.5-0.2,0.7H114.4z"/>
	<path class="st1" d="M117.7,22.3c0.3-0.1,0.7-0.2,1.2-0.2c0.5-0.1,1.1-0.1,1.7-0.1c0.6,0,1.1,0.1,1.4,0.2c0.4,0.2,0.7,0.4,0.9,0.7
		c0.2,0.3,0.4,0.6,0.5,1.1c0.1,0.4,0.1,0.9,0.1,1.3v4.1h-1.3v-3.8c0-0.4,0-0.8-0.1-1.1c-0.1-0.3-0.2-0.6-0.3-0.8s-0.3-0.3-0.6-0.4
		c-0.2-0.1-0.5-0.1-0.9-0.1c-0.1,0-0.3,0-0.4,0c-0.1,0-0.3,0-0.4,0c-0.1,0-0.3,0-0.4,0c-0.1,0-0.2,0-0.2,0v6.1h-1.3V22.3z"/>
	<path class="st1" d="M126.9,22.1h2.7v1.1h-2.7v3.3c0,0.4,0,0.7,0.1,0.9c0.1,0.2,0.1,0.4,0.3,0.6c0.1,0.1,0.3,0.2,0.4,0.3
		c0.2,0.1,0.4,0.1,0.6,0.1c0.4,0,0.7,0,0.9-0.1c0.2-0.1,0.4-0.2,0.5-0.2l0.3,1.1c-0.1,0.1-0.4,0.1-0.7,0.2c-0.3,0.1-0.7,0.1-1.1,0.1
		c-0.5,0-0.9-0.1-1.2-0.2c-0.3-0.1-0.6-0.3-0.8-0.6s-0.3-0.6-0.4-0.9c-0.1-0.4-0.1-0.8-0.1-1.3v-6.5l1.3-0.2V22.1z"/>
</g>
</svg>
