<svg id="Layer_1" enable-background="new 0 0 468 468" height="512" viewBox="0 0 468 468" width="512" xmlns="http://www.w3.org/2000/svg"><g><g><g><path d="m312.591 344.677h-185.182c-6.119 0-11.08-4.96-11.08-11.079v-133.305c0-4.808 3.102-9.068 7.678-10.544l45.857-14.792c5.391-1.739 11.225.868 13.526 6.044l36.61 82.369 36.609-82.368c2.301-5.176 8.135-7.783 13.526-6.044l45.857 14.792c4.576 1.476 7.678 5.736 7.678 10.544v133.304c0 6.119-4.96 11.079-11.079 11.079z" fill="#fff"/></g><g><g><path d="m154.626 212.95 37.075-13.249-8.311-18.699c-2.301-5.176-8.135-7.783-13.526-6.044l-45.857 14.792c-4.576 1.476-7.678 5.736-7.678 10.544v133.304c0 6.119 4.96 11.079 11.08 11.079h17.92v-118.515c.001-5.93 3.723-11.22 9.297-13.212z" fill="#e6e7e8"/></g></g><g><ellipse cx="220" cy="71.127" fill="#0795fe" rx="66" ry="66.127"/></g><g><path d="m206.297 269.484-35.176-79.143-39.792 12.836v21.486h-30v-24.369c0-11.376 7.268-21.362 18.084-24.85l45.854-14.791c12.708-4.103 26.395 2.016 31.825 14.235l22.908 51.537 22.906-51.537c5.431-12.219 19.115-18.339 31.827-14.236l45.855 14.792c10.814 3.487 18.082 13.473 18.082 24.849v20.654h-30v-17.77l-39.792-12.836-35.176 79.143c-4.702 11.041-21.702 12.795-27.405 0z" fill="#3e4d6c"/></g><g><path d="m101.329 248.708h30v26.529h-30z" fill="#3e4d6c"/></g></g><g><g><path d="m265.425 309.396-84.916-.068-32.036 20.122-31.448-20.146-32.036 20.122-29.867-20.145-40.122 39.441 40.52 39.486 206.349.113c15.2 35.444 54.062 59.627 94.383 59.649 53.761.029 97.022-44.242 96.746-99.008s-43.983-99.084-97.744-99.114c-40.321-.022-74.986 24.12-89.829 59.548z" fill="#fff"/></g><g><path d="m368.253 416.91c-36.445-.02-71.697-19.778-89.362-49.749-3.607-6.12-10.142-9.903-17.235-9.906l-194.136-.107-30.679-29.896-21.841 21.47 40.52 39.485 206.349.113c15.2 35.444 54.062 59.626 94.383 59.648 46.801.025 85.638-33.523 94.729-78.339-16.942 28.392-47.59 47.3-82.728 47.281z" fill="#e6e7e8"/></g><g><ellipse cx="356.197" cy="348.91" fill="#0795fe" rx="21" ry="21.383"/></g><path d="m356.291 463c-41.688 0-83.468-22.755-103.792-59.653l-197.042-.108c-3.904-.002-7.653-1.528-10.452-4.255l-40.526-39.486c-5.953-5.801-5.976-15.674-.047-21.501l40.128-39.442c5.082-4.997 12.975-5.725 18.884-1.74l21.783 14.691 23.782-14.934c4.913-3.088 11.164-3.059 16.049.071l23.449 15.02 23.992-15.068c2.388-1.5 5.15-2.295 7.969-2.295h.012l75.445.061c19.323-36.48 57.254-59.541 99.26-59.541h.061c61.854.035 112.434 51.206 112.751 114.067.311 61.511-49.791 114.111-111.706 114.113zm-294.731-89.816 200.289.11c5.993.003 11.41 3.579 13.775 9.096 12.76 29.745 45.912 50.533 80.622 50.553 45.511 0 81.975-38.801 81.748-83.903-.233-46.381-37.361-84.136-82.764-84.161-.014 0-.03 0-.045 0-33.33 0-63.14 19.754-75.956 50.337-2.339 5.581-7.792 9.212-13.833 9.212-.004 0-.008 0-.012 0l-80.608-.065-28.38 17.823c-4.916 3.085-11.166 3.058-16.05-.071l-23.449-15.02-23.993 15.067c-5.02 3.154-11.426 3.051-16.346-.266l-19.719-13.3-20.432 20.082z" fill="#3e4d6c"/></g></g></svg>