<?xml version="1.0" encoding="utf-8"?>
<!-- Generator: Adobe Illustrator 27.0.0, SVG Export Plug-In . SVG Version: 6.00 Build 0)  -->
<svg version="1.1" id="Layer_1" xmlns="http://www.w3.org/2000/svg" xmlns:xlink="http://www.w3.org/1999/xlink" x="0px" y="0px"
	 viewBox="0 0 134 32" style="enable-background:new 0 0 134 32;" xml:space="preserve">
<style type="text/css">
	.st0{fill:#3C8DCB;}
	.st1{fill:#D6D6D3;}
	.st2{fill:#707171;}
	.st3{fill:#FBB230;}
</style>
<g>
	<path class="st0" d="M48.2,22.4c0.3-0.1,0.7-0.2,1.2-0.2c0.5-0.1,1.1-0.1,1.7-0.1c0.5,0,0.9,0.1,1.2,0.2c0.3,0.1,0.6,0.3,0.8,0.5
		c0.1,0,0.2-0.1,0.3-0.2c0.1-0.1,0.3-0.2,0.5-0.2c0.2-0.1,0.4-0.1,0.7-0.2c0.3-0.1,0.5-0.1,0.8-0.1c0.6,0,1,0.1,1.4,0.2
		c0.4,0.2,0.6,0.4,0.8,0.7c0.2,0.3,0.3,0.6,0.4,1.1c0.1,0.4,0.1,0.9,0.1,1.3v4.1h-1.3v-3.8c0-0.4,0-0.8-0.1-1.1
		c0-0.3-0.1-0.6-0.2-0.8c-0.1-0.2-0.3-0.4-0.5-0.5c-0.2-0.1-0.5-0.1-0.8-0.1c-0.4,0-0.8,0.1-1.1,0.2c-0.3,0.1-0.5,0.2-0.6,0.3
		c0.1,0.2,0.1,0.5,0.2,0.8c0,0.3,0.1,0.6,0.1,0.9v4.1h-1.3v-3.8c0-0.4,0-0.8-0.1-1.1c0-0.3-0.1-0.6-0.2-0.8
		c-0.1-0.2-0.3-0.4-0.5-0.5c-0.2-0.1-0.5-0.1-0.8-0.1c-0.1,0-0.3,0-0.4,0c-0.1,0-0.3,0-0.4,0c-0.1,0-0.3,0-0.4,0c-0.1,0-0.2,0-0.2,0
		v6.1h-1.3V22.4z"/>
	<path class="st0" d="M62.6,22c0.5,0,1,0.1,1.3,0.2c0.4,0.1,0.6,0.3,0.9,0.6c0.2,0.2,0.4,0.5,0.5,0.9c0.1,0.3,0.1,0.7,0.1,1.1v4.5
		c-0.1,0-0.3,0-0.5,0.1c-0.2,0-0.4,0.1-0.7,0.1c-0.3,0-0.5,0.1-0.8,0.1c-0.3,0-0.6,0-0.9,0c-0.4,0-0.8,0-1.1-0.1
		c-0.3-0.1-0.6-0.2-0.9-0.4c-0.3-0.2-0.4-0.4-0.6-0.7c-0.1-0.3-0.2-0.7-0.2-1.1c0-0.4,0.1-0.7,0.2-1c0.2-0.3,0.4-0.5,0.7-0.7
		c0.3-0.2,0.6-0.3,1-0.4c0.4-0.1,0.8-0.1,1.2-0.1c0.1,0,0.3,0,0.4,0c0.1,0,0.3,0,0.4,0.1c0.1,0,0.2,0,0.3,0.1c0.1,0,0.2,0,0.2,0
		v-0.4c0-0.2,0-0.4-0.1-0.6c0-0.2-0.1-0.4-0.3-0.6c-0.1-0.2-0.3-0.3-0.5-0.4c-0.2-0.1-0.5-0.1-0.8-0.1c-0.4,0-0.8,0-1.1,0.1
		c-0.3,0.1-0.6,0.1-0.7,0.2l-0.2-1.1c0.2-0.1,0.4-0.1,0.8-0.2C61.7,22,62.1,22,62.6,22z M62.7,28.5c0.3,0,0.6,0,0.8,0
		c0.2,0,0.4,0,0.6-0.1v-2.2c-0.1,0-0.2-0.1-0.5-0.1c-0.2,0-0.5,0-0.8,0c-0.2,0-0.4,0-0.6,0c-0.2,0-0.4,0.1-0.6,0.2
		c-0.2,0.1-0.3,0.2-0.5,0.4C61.1,26.8,61,27,61,27.2c0,0.5,0.1,0.8,0.4,1C61.7,28.4,62.2,28.5,62.7,28.5z"/>
	<path class="st0" d="M67.5,22.4c0.3-0.1,0.7-0.2,1.2-0.2c0.5-0.1,1.1-0.1,1.7-0.1c0.6,0,1.1,0.1,1.4,0.2c0.4,0.2,0.7,0.4,0.9,0.7
		c0.2,0.3,0.4,0.6,0.5,1.1c0.1,0.4,0.1,0.9,0.1,1.3v4.1H72v-3.8c0-0.4,0-0.8-0.1-1.1c-0.1-0.3-0.2-0.6-0.3-0.8
		c-0.1-0.2-0.3-0.3-0.6-0.4c-0.2-0.1-0.5-0.1-0.9-0.1c-0.1,0-0.3,0-0.4,0c-0.1,0-0.3,0-0.4,0c-0.1,0-0.3,0-0.4,0c-0.1,0-0.2,0-0.2,0
		v6.1h-1.3V22.4z"/>
	<path class="st0" d="M77.8,22c0.5,0,1,0.1,1.3,0.2c0.4,0.1,0.6,0.3,0.9,0.6c0.2,0.2,0.4,0.5,0.5,0.9c0.1,0.3,0.1,0.7,0.1,1.1v4.5
		c-0.1,0-0.3,0-0.5,0.1c-0.2,0-0.4,0.1-0.7,0.1c-0.3,0-0.5,0.1-0.8,0.1c-0.3,0-0.6,0-0.9,0c-0.4,0-0.8,0-1.1-0.1
		c-0.3-0.1-0.6-0.2-0.9-0.4c-0.3-0.2-0.4-0.4-0.6-0.7c-0.1-0.3-0.2-0.7-0.2-1.1c0-0.4,0.1-0.7,0.2-1c0.2-0.3,0.4-0.5,0.7-0.7
		c0.3-0.2,0.6-0.3,1-0.4C77.2,25,77.6,25,78,25c0.1,0,0.3,0,0.4,0c0.1,0,0.3,0,0.4,0.1c0.1,0,0.2,0,0.3,0.1c0.1,0,0.2,0,0.2,0v-0.4
		c0-0.2,0-0.4-0.1-0.6c0-0.2-0.1-0.4-0.3-0.6c-0.1-0.2-0.3-0.3-0.5-0.4c-0.2-0.1-0.5-0.1-0.8-0.1c-0.4,0-0.8,0-1.1,0.1
		c-0.3,0.1-0.6,0.1-0.7,0.2l-0.2-1.1c0.2-0.1,0.4-0.1,0.8-0.2C76.9,22,77.3,22,77.8,22z M77.9,28.5c0.3,0,0.6,0,0.8,0
		c0.2,0,0.4,0,0.6-0.1v-2.2c-0.1,0-0.2-0.1-0.5-0.1c-0.2,0-0.5,0-0.8,0c-0.2,0-0.4,0-0.6,0c-0.2,0-0.4,0.1-0.6,0.2
		c-0.2,0.1-0.3,0.2-0.5,0.4c-0.1,0.2-0.2,0.4-0.2,0.6c0,0.5,0.1,0.8,0.4,1C77,28.4,77.4,28.5,77.9,28.5z"/>
	<path class="st0" d="M87.3,28.7c-0.1,0.1-0.3,0.2-0.6,0.3c-0.3,0.1-0.7,0.2-1.1,0.2c-0.4,0-0.8-0.1-1.2-0.2c-0.4-0.1-0.7-0.4-1-0.6
		c-0.3-0.3-0.5-0.7-0.7-1.1c-0.2-0.4-0.3-1-0.3-1.6c0-0.5,0.1-1,0.2-1.5c0.2-0.4,0.4-0.8,0.7-1.1c0.3-0.3,0.7-0.6,1.1-0.8
		c0.4-0.2,0.9-0.3,1.5-0.3c0.6,0,1.1,0,1.6,0.1c0.4,0.1,0.8,0.2,1.1,0.2v6.5c0,1.1-0.3,1.9-0.9,2.4c-0.6,0.5-1.4,0.8-2.6,0.8
		c-0.5,0-0.9,0-1.3-0.1c-0.4-0.1-0.8-0.2-1.1-0.3l0.2-1.1c0.3,0.1,0.6,0.2,1,0.3c0.4,0.1,0.8,0.1,1.2,0.1c0.8,0,1.3-0.2,1.7-0.5
		c0.3-0.3,0.5-0.8,0.5-1.5V28.7z M87.2,23.3c-0.1,0-0.3-0.1-0.5-0.1c-0.2,0-0.5,0-0.9,0c-0.7,0-1.2,0.2-1.6,0.7
		c-0.4,0.5-0.6,1.1-0.6,1.8c0,0.4,0.1,0.8,0.2,1.1c0.1,0.3,0.3,0.5,0.4,0.7c0.2,0.2,0.4,0.3,0.6,0.4c0.2,0.1,0.5,0.1,0.7,0.1
		c0.3,0,0.7,0,0.9-0.1c0.3-0.1,0.5-0.2,0.7-0.3V23.3z"/>
	<path class="st0" d="M90.4,25.8c0-0.6,0.1-1.2,0.3-1.7c0.2-0.5,0.4-0.9,0.7-1.2c0.3-0.3,0.7-0.6,1.1-0.7c0.4-0.2,0.8-0.2,1.2-0.2
		c1,0,1.7,0.3,2.2,0.9c0.5,0.6,0.8,1.5,0.8,2.8c0,0.1,0,0.1,0,0.2c0,0.1,0,0.2,0,0.2h-5c0.1,0.8,0.3,1.3,0.7,1.7
		c0.4,0.4,1,0.6,1.8,0.6c0.5,0,0.8,0,1.1-0.1c0.3-0.1,0.5-0.2,0.7-0.2l0.2,1.1c-0.2,0.1-0.4,0.2-0.8,0.3c-0.4,0.1-0.8,0.1-1.3,0.1
		c-0.6,0-1.2-0.1-1.6-0.3c-0.5-0.2-0.8-0.5-1.1-0.8c-0.3-0.3-0.5-0.7-0.7-1.2C90.4,26.8,90.4,26.3,90.4,25.8z M95.3,25.1
		c0-0.6-0.1-1.1-0.4-1.4c-0.3-0.4-0.7-0.6-1.2-0.6c-0.3,0-0.6,0.1-0.8,0.2c-0.2,0.1-0.4,0.3-0.6,0.5c-0.2,0.2-0.3,0.4-0.4,0.6
		c-0.1,0.2-0.1,0.5-0.2,0.7H95.3z"/>
	<path class="st0" d="M98.5,22.4c0.3-0.1,0.7-0.2,1.2-0.2c0.5-0.1,1.1-0.1,1.7-0.1c0.5,0,0.9,0.1,1.2,0.2c0.3,0.1,0.6,0.3,0.8,0.5
		c0.1,0,0.2-0.1,0.3-0.2c0.1-0.1,0.3-0.2,0.5-0.2c0.2-0.1,0.4-0.1,0.7-0.2c0.3-0.1,0.5-0.1,0.8-0.1c0.6,0,1,0.1,1.4,0.2
		c0.4,0.2,0.6,0.4,0.8,0.7c0.2,0.3,0.3,0.6,0.4,1.1c0.1,0.4,0.1,0.9,0.1,1.3v4.1h-1.3v-3.8c0-0.4,0-0.8-0.1-1.1
		c0-0.3-0.1-0.6-0.2-0.8c-0.1-0.2-0.3-0.4-0.5-0.5c-0.2-0.1-0.5-0.1-0.8-0.1c-0.4,0-0.8,0.1-1.1,0.2c-0.3,0.1-0.5,0.2-0.6,0.3
		c0.1,0.2,0.1,0.5,0.2,0.8c0,0.3,0.1,0.6,0.1,0.9v4.1h-1.3v-3.8c0-0.4,0-0.8-0.1-1.1c0-0.3-0.1-0.6-0.2-0.8
		c-0.1-0.2-0.3-0.4-0.5-0.5c-0.2-0.1-0.5-0.1-0.8-0.1c-0.1,0-0.3,0-0.4,0c-0.1,0-0.3,0-0.4,0c-0.1,0-0.3,0-0.4,0c-0.1,0-0.2,0-0.2,0
		v6.1h-1.3V22.4z"/>
	<path class="st0" d="M110.1,25.8c0-0.6,0.1-1.2,0.3-1.7c0.2-0.5,0.4-0.9,0.7-1.2c0.3-0.3,0.7-0.6,1.1-0.7c0.4-0.2,0.8-0.2,1.2-0.2
		c1,0,1.7,0.3,2.2,0.9c0.5,0.6,0.8,1.5,0.8,2.8c0,0.1,0,0.1,0,0.2c0,0.1,0,0.2,0,0.2h-5c0.1,0.8,0.3,1.3,0.7,1.7
		c0.4,0.4,1,0.6,1.8,0.6c0.5,0,0.8,0,1.1-0.1c0.3-0.1,0.5-0.2,0.7-0.2l0.2,1.1c-0.2,0.1-0.4,0.2-0.8,0.3c-0.4,0.1-0.8,0.1-1.3,0.1
		c-0.6,0-1.2-0.1-1.6-0.3c-0.5-0.2-0.8-0.5-1.1-0.8c-0.3-0.3-0.5-0.7-0.7-1.2C110.2,26.8,110.1,26.3,110.1,25.8z M115.1,25.1
		c0-0.6-0.1-1.1-0.4-1.4c-0.3-0.4-0.7-0.6-1.2-0.6c-0.3,0-0.6,0.1-0.8,0.2c-0.2,0.1-0.4,0.3-0.6,0.5c-0.2,0.2-0.3,0.4-0.4,0.6
		c-0.1,0.2-0.1,0.5-0.2,0.7H115.1z"/>
	<path class="st0" d="M118.3,22.4c0.3-0.1,0.7-0.2,1.2-0.2c0.5-0.1,1.1-0.1,1.7-0.1c0.6,0,1.1,0.1,1.4,0.2c0.4,0.2,0.7,0.4,0.9,0.7
		c0.2,0.3,0.4,0.6,0.5,1.1c0.1,0.4,0.1,0.9,0.1,1.3v4.1h-1.3v-3.8c0-0.4,0-0.8-0.1-1.1c-0.1-0.3-0.2-0.6-0.3-0.8
		c-0.1-0.2-0.3-0.3-0.6-0.4c-0.2-0.1-0.5-0.1-0.9-0.1c-0.1,0-0.3,0-0.4,0c-0.1,0-0.3,0-0.4,0c-0.1,0-0.3,0-0.4,0c-0.1,0-0.2,0-0.2,0
		v6.1h-1.3V22.4z"/>
	<path class="st0" d="M127.5,22.2h2.7v1.1h-2.7v3.3c0,0.4,0,0.7,0.1,0.9s0.1,0.4,0.3,0.6c0.1,0.1,0.3,0.2,0.4,0.3
		c0.2,0.1,0.4,0.1,0.6,0.1c0.4,0,0.7,0,0.9-0.1c0.2-0.1,0.4-0.2,0.5-0.2l0.3,1.1c-0.1,0.1-0.4,0.1-0.7,0.2c-0.3,0.1-0.7,0.1-1.1,0.1
		c-0.5,0-0.9-0.1-1.2-0.2c-0.3-0.1-0.6-0.3-0.8-0.6c-0.2-0.3-0.3-0.6-0.4-0.9c-0.1-0.4-0.1-0.8-0.1-1.3v-6.5l1.3-0.2V22.2z"/>
</g>
<g>
	<path class="st1" d="M25.2,1l2.4,0.9l-7.9,21.8l-2.4-0.9C17,22.6,16.8,22.3,17,22l7.5-20.6C24.6,1,24.9,0.9,25.2,1z"/>
	<path class="st0" d="M27.6,1.9l13.6,5c1,0.4,1.5,1.5,1.2,2.5l-6.6,18.1c-0.4,1-1.5,1.5-2.5,1.2l-13.6-5L27.6,1.9z"/>
	<path class="st1" d="M29.7,7.2l8.4,3.1c0.5,0.2,0.8,0.8,0.6,1.3l-1.8,4.9c-0.2,0.5-0.8,0.8-1.3,0.6l-8.4-3.1
		c-0.5-0.2-0.8-0.8-0.6-1.3l1.8-4.9C28.5,7.3,29.1,7,29.7,7.2L29.7,7.2z"/>
	<path class="st2" d="M34.3,12.1c-0.1,0-0.1,0-0.2,0l-2.7-1c-0.3-0.1-0.4-0.4-0.3-0.6c0.1-0.3,0.4-0.4,0.6-0.3l2.7,1
		c0.3,0.1,0.4,0.4,0.3,0.6C34.7,12,34.5,12.1,34.3,12.1L34.3,12.1z"/>
	<path class="st2" d="M34.3,14.5c-0.1,0-0.1,0-0.2,0L30,12.9c-0.3-0.1-0.4-0.4-0.3-0.6c0.1-0.3,0.4-0.4,0.6-0.3l4.1,1.5
		c0.3,0.1,0.4,0.4,0.3,0.6C34.7,14.3,34.5,14.5,34.3,14.5z"/>
	<path class="st1" d="M10.7,7.3h2.5v23.2h-2.5c-0.3,0-0.6-0.3-0.6-0.6v-22C10.2,7.5,10.4,7.3,10.7,7.3L10.7,7.3z"/>
	<path class="st3" d="M13.3,7.3h14.5c1.1,0,1.9,0.9,1.9,1.9v19.3c0,1.1-0.9,1.9-1.9,1.9H13.3L13.3,7.3z"/>
	<path class="st1" d="M17,11.6H26c0.6,0,1,0.5,1,1v5.2c0,0.6-0.5,1-1,1H17c-0.6,0-1-0.5-1-1v-5.2C16,12.1,16.5,11.6,17,11.6z"/>
	<g>
		<path class="st2" d="M22.9,14.6h-2.8c-0.3,0-0.5-0.2-0.5-0.5c0-0.3,0.2-0.5,0.5-0.5h2.8c0.3,0,0.5,0.2,0.5,0.5
			S23.2,14.6,22.9,14.6z"/>
		<path class="st2" d="M23.7,16.9h-4.4c-0.3,0-0.5-0.2-0.5-0.5s0.2-0.5,0.5-0.5h4.4c0.3,0,0.5,0.2,0.5,0.5S24,16.9,23.7,16.9
			L23.7,16.9z"/>
	</g>
</g>
<g>
	<path class="st3" d="M51.9,15.8c0.5,0,0.8,0,1.1-0.1c0.3-0.1,0.5-0.2,0.7-0.3c0.2-0.1,0.3-0.3,0.4-0.5c0.1-0.2,0.1-0.4,0.1-0.6
		c0-0.5-0.2-0.9-0.7-1.2c-0.4-0.3-1.2-0.6-2.3-1c-0.5-0.2-0.9-0.4-1.4-0.6c-0.5-0.2-0.9-0.5-1.3-0.8c-0.4-0.3-0.7-0.7-0.9-1.2
		c-0.2-0.5-0.4-1-0.4-1.7s0.1-1.3,0.4-1.8c0.2-0.5,0.6-1,1.1-1.4c0.5-0.4,1-0.7,1.7-0.9c0.6-0.2,1.4-0.3,2.2-0.3
		c1,0,1.8,0.1,2.5,0.3c0.7,0.2,1.3,0.4,1.7,0.7l-0.9,2.5c-0.4-0.2-0.8-0.4-1.3-0.5c-0.5-0.2-1.1-0.2-1.8-0.2c-0.8,0-1.3,0.1-1.7,0.3
		c-0.3,0.2-0.5,0.5-0.5,1c0,0.3,0.1,0.5,0.2,0.7c0.1,0.2,0.3,0.3,0.5,0.5s0.5,0.3,0.8,0.4c0.3,0.1,0.6,0.2,1,0.4
		c0.7,0.3,1.4,0.5,1.9,0.8c0.6,0.3,1,0.6,1.4,0.9c0.4,0.4,0.6,0.8,0.8,1.3c0.2,0.5,0.3,1.1,0.3,1.8c0,1.3-0.5,2.4-1.4,3.1
		c-0.9,0.7-2.4,1.1-4.2,1.1c-0.6,0-1.2,0-1.7-0.1c-0.5-0.1-1-0.2-1.4-0.3c-0.4-0.1-0.7-0.2-1-0.4c-0.3-0.1-0.5-0.2-0.7-0.4l0.9-2.6
		c0.4,0.2,1,0.4,1.6,0.6C50.2,15.7,51,15.8,51.9,15.8z"/>
	<path class="st3" d="M66.6,18.5c-2.3,0-4.1-0.6-5.3-1.9c-1.2-1.3-1.8-3.1-1.8-5.5c0-1.2,0.2-2.2,0.6-3.2c0.4-0.9,0.9-1.7,1.5-2.4
		c0.6-0.6,1.4-1.1,2.3-1.5c0.9-0.3,1.9-0.5,2.9-0.5c0.6,0,1.2,0,1.7,0.1c0.5,0.1,0.9,0.2,1.3,0.3c0.4,0.1,0.7,0.2,0.9,0.4
		c0.2,0.1,0.4,0.2,0.5,0.3l-0.9,2.6c-0.4-0.2-1-0.4-1.5-0.6c-0.6-0.2-1.3-0.2-2-0.2c-0.5,0-1,0.1-1.5,0.2S64.3,7.1,64,7.5
		c-0.4,0.4-0.7,0.8-0.9,1.4c-0.2,0.6-0.3,1.3-0.3,2.1c0,0.7,0.1,1.3,0.2,1.9c0.1,0.6,0.4,1.1,0.7,1.5c0.3,0.4,0.7,0.7,1.3,1
		c0.5,0.2,1.2,0.4,1.9,0.4c0.5,0,0.9,0,1.3-0.1c0.4-0.1,0.7-0.1,1-0.2c0.3-0.1,0.5-0.2,0.8-0.3c0.2-0.1,0.4-0.2,0.6-0.3l0.9,2.6
		c-0.5,0.3-1.1,0.5-1.9,0.7C68.6,18.4,67.7,18.5,66.6,18.5z"/>
	<path class="st3" d="M82.1,3.9h3.2v14.4h-3.2v-6.1h-5.4v6.1h-3.2V3.9h3.2v5.5h5.4V3.9z"/>
	<path class="st3" d="M102.3,11.1c0,1.2-0.2,2.3-0.5,3.2c-0.4,0.9-0.9,1.7-1.5,2.3c-0.6,0.6-1.4,1.1-2.3,1.4
		c-0.9,0.3-1.8,0.5-2.8,0.5c-1,0-1.9-0.2-2.8-0.5c-0.9-0.3-1.6-0.8-2.3-1.4c-0.6-0.6-1.2-1.4-1.5-2.3c-0.4-0.9-0.6-2-0.6-3.2
		c0-1.2,0.2-2.3,0.6-3.2c0.4-0.9,0.9-1.7,1.6-2.4c0.7-0.6,1.4-1.1,2.3-1.4c0.9-0.3,1.8-0.5,2.7-0.5c1,0,1.9,0.2,2.8,0.5
		c0.9,0.3,1.6,0.8,2.3,1.4c0.6,0.6,1.2,1.4,1.5,2.4C102.2,8.7,102.3,9.8,102.3,11.1z M91.4,11.1c0,0.7,0.1,1.3,0.3,1.9
		c0.2,0.6,0.4,1.1,0.7,1.5c0.3,0.4,0.7,0.7,1.2,0.9c0.5,0.2,1,0.3,1.6,0.3c0.6,0,1.1-0.1,1.6-0.3c0.5-0.2,0.9-0.5,1.2-0.9
		c0.3-0.4,0.6-0.9,0.7-1.5c0.2-0.6,0.3-1.2,0.3-1.9c0-0.7-0.1-1.3-0.3-1.9c-0.2-0.6-0.4-1.1-0.7-1.5c-0.3-0.4-0.7-0.7-1.2-0.9
		c-0.5-0.2-1-0.3-1.6-0.3c-0.6,0-1.1,0.1-1.6,0.3c-0.5,0.2-0.9,0.5-1.2,1c-0.3,0.4-0.6,0.9-0.7,1.5C91.5,9.7,91.4,10.4,91.4,11.1z"
		/>
	<path class="st3" d="M118.7,11.1c0,1.2-0.2,2.3-0.5,3.2c-0.4,0.9-0.9,1.7-1.5,2.3c-0.6,0.6-1.4,1.1-2.3,1.4
		c-0.9,0.3-1.8,0.5-2.8,0.5c-1,0-1.9-0.2-2.8-0.5c-0.9-0.3-1.6-0.8-2.3-1.4c-0.6-0.6-1.2-1.4-1.5-2.3c-0.4-0.9-0.6-2-0.6-3.2
		c0-1.2,0.2-2.3,0.6-3.2c0.4-0.9,0.9-1.7,1.6-2.4c0.7-0.6,1.4-1.1,2.3-1.4c0.9-0.3,1.8-0.5,2.7-0.5c1,0,1.9,0.2,2.8,0.5
		c0.9,0.3,1.6,0.8,2.3,1.4c0.6,0.6,1.2,1.4,1.5,2.4C118.5,8.7,118.7,9.8,118.7,11.1z M107.7,11.1c0,0.7,0.1,1.3,0.3,1.9
		c0.2,0.6,0.4,1.1,0.7,1.5c0.3,0.4,0.7,0.7,1.2,0.9c0.5,0.2,1,0.3,1.6,0.3c0.6,0,1.1-0.1,1.6-0.3c0.5-0.2,0.9-0.5,1.2-0.9
		c0.3-0.4,0.6-0.9,0.7-1.5c0.2-0.6,0.3-1.2,0.3-1.9c0-0.7-0.1-1.3-0.3-1.9c-0.2-0.6-0.4-1.1-0.7-1.5c-0.3-0.4-0.7-0.7-1.2-0.9
		c-0.5-0.2-1-0.3-1.6-0.3c-0.6,0-1.1,0.1-1.6,0.3c-0.5,0.2-0.9,0.5-1.2,1c-0.3,0.4-0.6,0.9-0.7,1.5C107.8,9.7,107.7,10.4,107.7,11.1
		z"/>
	<path class="st3" d="M131,15.5v2.8h-9.6V3.9h3.2v11.6H131z"/>
</g>
</svg>
