<?xml version="1.0" encoding="utf-8"?>
<!-- Generator: Adobe Illustrator 27.0.0, SVG Export Plug-In . SVG Version: 6.00 Build 0)  -->
<svg version="1.1" id="Layer_2_00000183206609384381444070000015004997729276117409_"
	 xmlns="http://www.w3.org/2000/svg" xmlns:xlink="http://www.w3.org/1999/xlink" x="0px" y="0px" viewBox="0 0 780 210.9"
	 style="enable-background:new 0 0 780 210.9;" xml:space="preserve">
<style type="text/css">
	.st0{fill:#606060;}
	.st1{fill:#D7D7D5;}
	.st2{fill:#717171;}
</style>
<g id="Layer_1-2">
	<g>
		<path class="st0" d="M243.9,148.5c1.9-0.5,4.5-1,7.6-1.5c3.2-0.5,6.8-0.8,11-0.8s5.5,0.4,7.6,1.2c2,0.8,3.8,2,5.1,3.6
			c0.4-0.3,1.1-0.7,2-1.3c0.9-0.5,2-1.1,3.3-1.6s2.8-1,4.4-1.4s3.4-0.6,5.2-0.6c3.6,0,6.5,0.5,8.8,1.6s4.1,2.5,5.4,4.5
			c1.3,1.9,2.2,4.2,2.6,6.8c0.5,2.6,0.7,5.5,0.7,8.7V194h-8.4v-24.5c0-2.8-0.1-5.1-0.4-7.1s-0.8-3.6-1.5-5c-0.8-1.3-1.8-2.3-3.1-2.9
			c-1.3-0.6-3-0.9-5-0.9s-5.2,0.4-7,1.1c-1.8,0.8-3.1,1.4-3.7,2c0.5,1.6,0.8,3.3,1.1,5.1c0.2,1.9,0.4,3.8,0.4,5.9V194h-8.4v-24.5
			c0-2.8-0.2-5.1-0.5-7.1s-0.8-3.6-1.6-5c-0.8-1.3-1.8-2.3-3.1-2.9c-1.3-0.6-2.9-0.9-4.9-0.9s-1.7,0-2.7,0s-1.9,0.1-2.7,0.2
			c-0.9,0-1.7,0.2-2.4,0.3s-1.2,0.2-1.4,0.3V194h-8.4V148.5L243.9,148.5z"/>
		<path class="st0" d="M336.6,146c3.4,0,6.2,0.4,8.5,1.3c2.3,0.9,4.2,2.1,5.6,3.7c1.4,1.6,2.4,3.5,3,5.7s0.9,4.6,0.9,7.3v29.3
			c-0.7,0.1-1.7,0.3-3,0.5s-2.7,0.4-4.4,0.6c-1.6,0.2-3.4,0.3-5.3,0.5c-1.9,0.1-3.8,0.2-5.6,0.2c-2.6,0-5.1-0.3-7.3-0.8
			c-2.2-0.5-4.1-1.4-5.8-2.6c-1.6-1.2-2.9-2.7-3.8-4.6c-0.9-1.9-1.4-4.2-1.4-6.9s0.5-4.8,1.6-6.7s2.5-3.4,4.3-4.5s3.9-2,6.3-2.5
			s4.9-0.8,7.6-0.8s1.7,0,2.6,0.1c0.9,0,1.8,0.2,2.6,0.4c0.8,0.2,1.5,0.3,2.1,0.4c0.6,0.1,1,0.2,1.3,0.3v-2.3c0-1.4-0.2-2.7-0.5-4.1
			c-0.3-1.4-0.8-2.6-1.6-3.6c-0.8-1.1-1.8-1.9-3.2-2.5s-3.1-0.9-5.3-0.9s-5.2,0.2-7.3,0.6c-2.1,0.4-3.6,0.8-4.6,1.2l-1-6.9
			c1.1-0.5,2.9-0.9,5.4-1.4s5.3-0.7,8.2-0.7L336.6,146z M337.3,188c2,0,3.7,0,5.3-0.1c1.5,0,2.8-0.3,3.8-0.5v-14
			c-0.6-0.3-1.6-0.6-2.9-0.8c-1.4-0.2-3-0.3-4.9-0.3s-2.6,0-4,0.3c-1.4,0.2-2.7,0.6-3.9,1.1c-1.2,0.6-2.1,1.4-2.9,2.3
			c-0.8,1-1.2,2.3-1.2,3.9c0,3,1,5.1,2.9,6.3S334,188,337.3,188L337.3,188z"/>
		<path class="st0" d="M368.5,148.5c1.9-0.5,4.5-1,7.7-1.5s6.8-0.8,11-0.8s6.8,0.5,9.3,1.6s4.4,2.5,5.9,4.4s2.5,4.2,3.1,6.8
			s0.9,5.6,0.9,8.7V194H398v-24.5c0-2.9-0.2-5.3-0.6-7.4c-0.4-2-1-3.7-1.9-5s-2.1-2.2-3.6-2.7c-1.5-0.6-3.4-0.9-5.6-0.9
			s-1.8,0-2.8,0s-1.9,0.1-2.7,0.2c-0.9,0-1.7,0.2-2.3,0.3c-0.7,0.1-1.2,0.2-1.5,0.3v39.6h-8.4v-45.5L368.5,148.5z"/>
		<path class="st0" d="M435.4,146c3.4,0,6.2,0.4,8.5,1.3c2.3,0.9,4.2,2.1,5.6,3.7c1.4,1.6,2.4,3.5,3,5.7s0.9,4.6,0.9,7.3v29.3
			c-0.7,0.1-1.7,0.3-3,0.5s-2.7,0.4-4.4,0.6c-1.6,0.2-3.4,0.3-5.3,0.5c-1.9,0.1-3.8,0.2-5.6,0.2c-2.6,0-5.1-0.3-7.3-0.8
			c-2.2-0.5-4.1-1.4-5.8-2.6c-1.6-1.2-2.9-2.7-3.8-4.6c-0.9-1.9-1.4-4.2-1.4-6.9s0.5-4.8,1.6-6.7s2.5-3.4,4.3-4.5s3.9-2,6.3-2.5
			s4.9-0.8,7.6-0.8s1.7,0,2.6,0.1c0.9,0,1.8,0.2,2.6,0.4c0.8,0.2,1.5,0.3,2.1,0.4c0.6,0.1,1,0.2,1.3,0.3v-2.3c0-1.4-0.2-2.7-0.5-4.1
			c-0.3-1.4-0.8-2.6-1.6-3.6c-0.8-1.1-1.8-1.9-3.2-2.5s-3.1-0.9-5.3-0.9s-5.2,0.2-7.3,0.6c-2.1,0.4-3.6,0.8-4.6,1.2l-1-6.9
			c1.1-0.5,2.9-0.9,5.4-1.4s5.3-0.7,8.2-0.7L435.4,146z M436.1,188c2,0,3.7,0,5.3-0.1c1.5,0,2.8-0.3,3.8-0.5v-14
			c-0.6-0.3-1.6-0.6-2.9-0.8c-1.4-0.2-3-0.3-4.9-0.3s-2.6,0-4,0.3c-1.4,0.2-2.7,0.6-3.9,1.1c-1.2,0.6-2.1,1.4-2.9,2.3
			c-0.8,1-1.2,2.3-1.2,3.9c0,3,1,5.1,2.9,6.3S432.8,188,436.1,188L436.1,188z"/>
		<path class="st0" d="M496.7,189.3c-0.7,0.5-2.1,1.1-4.2,1.8c-2.1,0.8-4.5,1.1-7.3,1.1s-5.5-0.5-8-1.4s-4.7-2.3-6.5-4.2
			c-1.9-1.9-3.3-4.2-4.4-7.1c-1.1-2.8-1.6-6.2-1.6-10.1s0.5-6.6,1.5-9.4c1-2.9,2.5-5.3,4.5-7.4c2-2.1,4.3-3.7,7.2-4.9
			c2.8-1.2,6-1.8,9.6-1.8s7.3,0.3,10.2,0.9c2.9,0.6,5.4,1.1,7.3,1.6v41.8c0,7.2-1.9,12.4-5.6,15.7c-3.7,3.2-9.4,4.9-16.9,4.9
			s-5.7-0.2-8.3-0.7c-2.6-0.5-4.9-1.1-6.8-1.7l1.5-7.3c1.7,0.7,3.7,1.2,6.2,1.8c2.4,0.5,5,0.8,7.6,0.8c5,0,8.6-1,10.8-3
			c2.2-2,3.3-5.1,3.3-9.5v-2L496.7,189.3z M496.7,154.5c-0.8-0.2-2-0.5-3.4-0.7s-3.3-0.3-5.7-0.3c-4.5,0-8,1.5-10.4,4.4
			s-3.7,6.8-3.7,11.7s0.3,5,1,6.9s1.6,3.5,2.8,4.8s2.5,2.2,4.1,2.8c1.5,0.6,3.1,0.9,4.7,0.9s4.3-0.3,6.1-0.9
			c1.9-0.6,3.3-1.4,4.4-2.2v-27.4H496.7z"/>
		<path class="st0" d="M516.8,170.6c0-4.1,0.6-7.8,1.8-10.9c1.2-3.1,2.8-5.7,4.8-7.7s4.3-3.6,6.8-4.6c2.6-1,5.2-1.5,7.9-1.5
			c6.3,0,11.1,2,14.5,5.9s5,9.9,5,18v1.4c0,0.6,0,1.1,0,1.6h-32.1c0.4,4.9,1.8,8.6,4.2,11.1c2.5,2.5,6.3,3.8,11.5,3.8
			s5.4-0.3,7.4-0.8s3.5-1,4.6-1.5l1.2,7c-1,0.5-2.8,1.1-5.4,1.7c-2.6,0.6-5.5,0.9-8.7,0.9s-7.6-0.6-10.6-1.8s-5.4-2.9-7.3-5.1
			c-1.9-2.2-3.3-4.7-4.3-7.7C517.2,177.4,516.7,174.2,516.8,170.6L516.8,170.6z M549,166c0-3.8-0.9-6.9-2.8-9.3
			c-2-2.4-4.6-3.6-8.1-3.6s-3.6,0.4-5.1,1.1c-1.5,0.8-2.7,1.7-3.7,2.9s-1.8,2.6-2.4,4.1c-0.6,1.6-0.9,3.2-1.1,4.8h23.3H549z"/>
		<path class="st0" d="M569.7,148.5c1.9-0.5,4.5-1,7.6-1.5c3.2-0.5,6.8-0.8,10.9-0.8s5.5,0.4,7.6,1.2c2,0.8,3.8,2,5.1,3.6
			c0.4-0.3,1.1-0.7,2-1.3c0.9-0.5,2-1.1,3.3-1.6s2.8-1,4.4-1.4c1.6-0.4,3.4-0.6,5.2-0.6c3.6,0,6.5,0.5,8.8,1.6s4.1,2.5,5.4,4.5
			c1.3,1.9,2.2,4.2,2.6,6.8c0.5,2.6,0.7,5.5,0.7,8.7V194h-8.4v-24.5c0-2.8-0.1-5.1-0.4-7.1s-0.8-3.6-1.5-5c-0.8-1.3-1.8-2.3-3.1-2.9
			c-1.3-0.6-3-0.9-5-0.9s-5.2,0.4-7,1.1c-1.8,0.8-3.1,1.4-3.7,2c0.5,1.6,0.8,3.3,1.1,5.1c0.2,1.9,0.4,3.8,0.4,5.9V194h-8.4v-24.5
			c0-2.8-0.2-5.1-0.5-7.1s-0.8-3.6-1.6-5c-0.8-1.3-1.8-2.3-3.1-2.9c-1.3-0.6-2.9-0.9-4.9-0.9s-1.7,0-2.7,0s-1.9,0.1-2.7,0.2
			c-0.9,0-1.7,0.2-2.4,0.3s-1.2,0.2-1.4,0.3V194h-8.4v-45.5L569.7,148.5z"/>
		<path class="st0" d="M644.7,170.6c0-4.1,0.6-7.8,1.8-10.9c1.2-3.1,2.8-5.7,4.8-7.7s4.3-3.6,6.8-4.6c2.6-1,5.2-1.5,7.9-1.5
			c6.3,0,11.1,2,14.5,5.9s5,9.9,5,18v1.4c0,0.6,0,1.1,0,1.6h-32.1c0.4,4.9,1.8,8.6,4.2,11.1c2.5,2.5,6.3,3.8,11.5,3.8
			s5.4-0.3,7.4-0.8s3.5-1,4.6-1.5l1.2,7c-1,0.5-2.8,1.1-5.4,1.7c-2.6,0.6-5.5,0.9-8.7,0.9s-7.6-0.6-10.6-1.8s-5.4-2.9-7.3-5.1
			c-1.9-2.2-3.3-4.7-4.3-7.7C645.1,177.4,644.6,174.2,644.7,170.6L644.7,170.6z M676.9,166c0-3.8-0.9-6.9-2.8-9.3
			c-2-2.4-4.6-3.6-8.1-3.6s-3.6,0.4-5.1,1.1c-1.5,0.8-2.7,1.7-3.7,2.9s-1.8,2.6-2.4,4.1c-0.6,1.6-0.9,3.2-1.1,4.8H677H676.9z"/>
		<path class="st0" d="M697.7,148.5c1.9-0.5,4.5-1,7.7-1.5s6.8-0.8,11-0.8s6.8,0.5,9.3,1.6s4.4,2.5,5.9,4.4s2.5,4.2,3.1,6.8
			s0.9,5.6,0.9,8.7V194h-8.4v-24.5c0-2.9-0.2-5.3-0.6-7.4c-0.4-2-1-3.7-1.9-5s-2.1-2.2-3.6-2.7c-1.5-0.6-3.4-0.9-5.6-0.9
			s-1.8,0-2.8,0s-1.9,0.1-2.7,0.2c-0.9,0-1.7,0.2-2.3,0.3c-0.7,0.1-1.2,0.2-1.5,0.3v39.6h-8.4v-45.5L697.7,148.5z"/>
		<path class="st0" d="M757.3,147.1h17.8v7h-17.8v21.6c0,2.3,0.2,4.3,0.5,5.8s0.9,2.7,1.6,3.6c0.7,0.9,1.6,1.5,2.7,1.8
			c1.1,0.4,2.3,0.5,3.8,0.5c2.5,0,4.6-0.3,6.1-0.9c1.5-0.6,2.6-1,3.2-1.2l1.6,6.9c-0.8,0.4-2.3,0.9-4.4,1.6
			c-2.1,0.6-4.5,0.9-7.2,0.9s-5.8-0.4-7.9-1.2c-2.1-0.8-3.7-2-5-3.6s-2.1-3.6-2.7-6c-0.5-2.4-0.8-5.1-0.8-8.2v-41.8l8.4-1.4V147
			L757.3,147.1z"/>
	</g>
	<g>
		<path class="st1" d="M97.7,0.2l15.4,5.6l-51.3,141l-15.4-5.6c-2-0.7-3-2.9-2.3-5L92.8,2.5c0.7-2,2.9-3,5-2.3L97.7,0.2z"/>
		<path d="M113.1,5.8L201.4,38c6.5,2.4,9.9,9.6,7.5,16.1l-42.8,117.5c-2.4,6.5-9.6,9.9-16.1,7.5l-88.3-32.2L113.1,5.8z"/>
		<path class="st1" d="M126.3,40.6l54.4,19.8c3.5,1.3,5.2,5.1,4,8.5l-11.5,31.7c-1.3,3.5-5.1,5.2-8.5,4l-54.4-19.8
			c-3.5-1.3-5.2-5.1-4-8.5l11.5-31.7C119.1,41.1,122.9,39.4,126.3,40.6L126.3,40.6L126.3,40.6z"/>
		<path class="st2" d="M156.6,72.2c-0.4,0-0.7,0-1.1-0.2l-17.3-6.3c-1.7-0.6-2.5-2.4-1.9-4.1s2.4-2.5,4.1-1.9l17.3,6.3
			c1.7,0.6,2.5,2.4,1.9,4.1C159.1,71.4,157.9,72.2,156.6,72.2L156.6,72.2z"/>
		<path class="st2" d="M156.4,87.4c-0.4,0-0.7,0-1.1-0.2l-26.6-9.7c-1.7-0.6-2.5-2.4-1.9-4.1s2.4-2.5,4.1-1.9l26.6,9.7
			c1.7,0.6,2.5,2.4,1.9,4.1C158.9,86.6,157.7,87.4,156.4,87.4L156.4,87.4z"/>
		<path class="st1" d="M3.9,40.9h16.3V191H3.9c-2.1,0-3.9-1.7-3.9-3.9V44.8C0,42.7,1.7,40.9,3.9,40.9C3.9,40.9,3.9,40.9,3.9,40.9z"
			/>
		<path class="st0" d="M20.2,40.9h94c6.9,0,12.5,5.6,12.5,12.5v125c0,6.9-5.6,12.5-12.5,12.5h-94V40.9z"/>
		<path class="st1" d="M44.6,69h57.9c3.7,0,6.7,3,6.7,6.7v33.7c0,3.7-3,6.7-6.7,6.7H44.6c-3.7,0-6.7-3-6.7-6.7V75.7
			C37.9,72,40.9,69,44.6,69z"/>
		<g>
			<path class="st2" d="M82.7,88.6H64.3c-1.8,0-3.2-1.4-3.2-3.2s1.4-3.2,3.2-3.2h18.4c1.8,0,3.2,1.4,3.2,3.2S84.5,88.6,82.7,88.6z"
				/>
			<path class="st2" d="M87.7,103H59.3c-1.8,0-3.2-1.4-3.2-3.2s1.4-3.2,3.2-3.2h28.4c1.8,0,3.2,1.4,3.2,3.2S89.5,103,87.7,103
				L87.7,103z"/>
		</g>
	</g>
	<g>
		<path d="M267.6,105.9c3,0,5.4-0.2,7.3-0.7s3.5-1.2,4.6-2c1.2-0.8,2-1.9,2.4-3c0.4-1.2,0.7-2.5,0.7-3.9c0-3-1.4-5.6-4.3-7.6
			s-7.8-4.2-14.8-6.5c-3-1.1-6.1-2.3-9.1-3.7c-3-1.4-5.8-3.1-8.2-5.2s-4.4-4.7-5.9-7.7S238,59,238,54.7s0.8-8.2,2.4-11.6
			c1.6-3.4,3.9-6.4,6.8-8.8c3-2.4,6.5-4.3,10.7-5.6c4.2-1.3,8.9-1.9,14.2-1.9s11.7,0.7,16.2,2c4.6,1.3,8.3,2.8,11.3,4.4l-6,16.5
			c-2.6-1.3-5.5-2.5-8.7-3.6c-3.2-1-7-1.5-11.5-1.5s-8.6,0.7-10.8,2.1c-2.2,1.4-3.3,3.5-3.3,6.4s0.4,3.1,1.2,4.3
			c0.8,1.2,1.9,2.2,3.4,3.2s3.2,1.8,5.1,2.6s4,1.5,6.4,2.3c4.8,1.8,9,3.6,12.6,5.3c3.6,1.7,6.6,3.8,8.9,6.1c2.4,2.3,4.1,5.1,5.3,8.2
			c1.2,3.1,1.7,6.9,1.7,11.4c0,8.7-3,15.4-9.1,20.2c-6.1,4.8-15.3,7.2-27.5,7.2s-7.8-0.2-11.1-0.7c-3.3-0.5-6.2-1.1-8.8-1.8
			c-2.5-0.7-4.7-1.5-6.6-2.3c-1.8-0.8-3.4-1.6-4.6-2.3l5.9-16.6c2.8,1.5,6.2,2.9,10.3,4.1s9.1,1.8,15,1.8L267.6,105.9z"/>
		<path d="M362.7,123.7c-15.1,0-26.6-4.2-34.6-12.6c-7.9-8.4-11.9-20.4-11.9-35.8s1.2-14.6,3.6-20.6s5.7-11.1,9.9-15.3
			c4.2-4.2,9.2-7.3,15-9.5c5.8-2.1,12.1-3.2,18.9-3.2s7.5,0.3,10.7,0.9s6,1.3,8.5,2c2.4,0.8,4.4,1.5,6,2.3c1.6,0.8,2.8,1.4,3.5,1.9
			l-6,16.9c-2.9-1.5-6.2-2.8-10-3.9c-3.8-1.1-8.1-1.6-13-1.6s-6.4,0.5-9.5,1.6s-5.8,2.8-8.2,5.2c-2.4,2.4-4.3,5.4-5.7,9.2
			c-1.4,3.8-2.1,8.3-2.1,13.7s0.5,8.3,1.4,12s2.5,6.9,4.6,9.6s4.9,4.8,8.3,6.4s7.5,2.3,12.3,2.3s5.8-0.2,8.2-0.5
			c2.4-0.4,4.6-0.8,6.4-1.3c1.9-0.5,3.5-1.1,5-1.7c1.4-0.6,2.7-1.2,3.9-1.7l5.8,16.8c-3,1.8-7.1,3.4-12.5,4.8s-11.6,2.1-18.7,2.1
			L362.7,123.7z"/>
		<path d="M463.4,28.8h20.9v93h-20.9V82.3h-35.2v39.5h-20.9v-93h20.9v35.6h35.2V28.8z"/>
		<path d="M594.4,75.3c0,8-1.2,15-3.6,21c-2.4,6-5.6,11.1-9.7,15.2c-4.1,4.1-9,7.1-14.7,9.2s-11.8,3.1-18.3,3.1s-12.3-1-18-3.1
			c-5.6-2.1-10.6-5.1-14.8-9.2s-7.5-9.1-9.9-15.2c-2.4-6-3.6-13-3.6-21s1.3-15,3.8-21s5.9-11.1,10.1-15.2c4.2-4.1,9.2-7.2,14.8-9.3
			s11.5-3.1,17.6-3.1s12.3,1,18,3.1c5.6,2.1,10.6,5.1,14.8,9.3c4.2,4.1,7.5,9.2,9.9,15.2S594.4,67.3,594.4,75.3L594.4,75.3z
			 M523.4,75.3c0,4.6,0.6,8.7,1.7,12.3c1.1,3.7,2.7,6.8,4.8,9.5c2.1,2.6,4.7,4.7,7.7,6.1s6.5,2.1,10.5,2.1s7.3-0.7,10.4-2.1
			c3.1-1.4,5.7-3.5,7.8-6.1s3.7-5.8,4.8-9.5s1.7-7.8,1.7-12.3s-0.6-8.7-1.7-12.4c-1.1-3.7-2.7-6.9-4.8-9.5s-4.7-4.7-7.8-6.1
			c-3.1-1.4-6.6-2.1-10.4-2.1s-7.4,0.7-10.5,2.2c-3,1.5-5.6,3.5-7.7,6.2c-2.1,2.6-3.7,5.8-4.8,9.5c-1.1,3.7-1.7,7.8-1.7,12.3V75.3z"
			/>
		<path d="M700.4,75.3c0,8-1.2,15-3.6,21c-2.4,6-5.6,11.1-9.7,15.2c-4.1,4.1-9,7.1-14.7,9.2s-11.8,3.1-18.3,3.1s-12.3-1-18-3.1
			c-5.6-2.1-10.6-5.1-14.8-9.2s-7.5-9.1-9.9-15.2c-2.4-6-3.6-13-3.6-21s1.3-15,3.8-21s5.9-11.1,10.1-15.2c4.2-4.1,9.2-7.2,14.8-9.3
			s11.5-3.1,17.6-3.1s12.3,1,18,3.1c5.6,2.1,10.6,5.1,14.8,9.3c4.2,4.1,7.5,9.2,9.9,15.2S700.4,67.3,700.4,75.3L700.4,75.3z
			 M629.4,75.3c0,4.6,0.6,8.7,1.7,12.3c1.1,3.7,2.7,6.8,4.8,9.5c2.1,2.6,4.7,4.7,7.7,6.1s6.5,2.1,10.5,2.1s7.3-0.7,10.4-2.1
			c3.1-1.4,5.7-3.5,7.8-6.1s3.7-5.8,4.8-9.5s1.7-7.8,1.7-12.3s-0.6-8.7-1.7-12.4c-1.1-3.7-2.7-6.9-4.8-9.5s-4.7-4.7-7.8-6.1
			c-3.1-1.4-6.6-2.1-10.4-2.1s-7.4,0.7-10.5,2.2c-3,1.5-5.6,3.5-7.7,6.2c-2.1,2.6-3.7,5.8-4.8,9.5c-1.1,3.7-1.7,7.8-1.7,12.3V75.3z"
			/>
		<path d="M780,103.8v18h-62.1v-93h20.9v75H780L780,103.8z"/>
	</g>
</g>
</svg>
